<?xml version="1.0" encoding="utf-8"?>
<!-- Generator: Adobe Illustrator 26.5.0, SVG Export Plug-In . SVG Version: 6.00 Build 0)  -->
<svg version="1.1" id="レイヤー_1" xmlns="http://www.w3.org/2000/svg" xmlns:xlink="http://www.w3.org/1999/xlink" x="0px"
	 y="0px" viewBox="0 0 21 16" style="enable-background:new 0 0 21 16;" xml:space="preserve">
<style type="text/css">
	.st0{fill:none;}
	.st1{fill:none;stroke:#E2E3E3;}
	.st2{fill:none;stroke:#E2E3E3;stroke-linejoin:round;}
</style>
<g id="グループ_220" transform="translate(-1363 -39)">
	<g id="長方形_70" transform="translate(1363 39)">
		<path class="st0" d="M3,0h15c1.7,0,3,1.3,3,3v10c0,1.7-1.3,3-3,3H3c-1.7,0-3-1.3-3-3V3C0,1.3,1.3,0,3,0z"/>
		<path class="st1" d="M3,0.5h15c1.4,0,2.5,1.1,2.5,2.5v10c0,1.4-1.1,2.5-2.5,2.5H3c-1.4,0-2.5-1.1-2.5-2.5V3C0.5,1.6,1.6,0.5,3,0.5
			z"/>
	</g>
	<path id="合体_1" class="st2" d="M1373.5,48.4L1373.5,48.4L1373.5,48.4l-7.7-6.4L1373.5,48.4l7.7-6.4L1373.5,48.4L1373.5,48.4z"
		/>
</g>
</svg>
