<svg xmlns="http://www.w3.org/2000/svg" xmlns:xlink="http://www.w3.org/1999/xlink" width="102" height="102" viewBox="0 0 102 102">
  <defs>
    <clipPath id="clip-path">
      <rect id="長方形_46" data-name="長方形 46" width="56.832" height="56.762" fill="none" stroke="#c7c0b7" stroke-width="1"/>
    </clipPath>
  </defs>
  <g id="グループ_323" data-name="グループ 323" transform="translate(0.988 1.256)">
    <circle id="Oval_Copy_6" data-name="Oval Copy 6" cx="50" cy="50" r="50" transform="translate(0.011 -0.256)" fill="none" stroke="#c7c0b7" stroke-miterlimit="10" stroke-width="2"/>
    <g id="グループ_169" data-name="グループ 169" transform="translate(21.724 19.954)">
      <g id="グループ_165" data-name="グループ 165" transform="translate(0 0)" clip-path="url(#clip-path)">
        <path id="パス_92" data-name="パス 92" d="M18.484,1c1.14,0,1.425,1.793,1.425,2.511V39.867c0,5.77,3.28,7.631,5.489,7.631s5.488-1.861,5.488-7.631V3.511c0-.718.285-2.511,1.425-2.511H18.484Z" transform="translate(-6.372 -0.345)" fill="none" stroke="#c7c0b7" stroke-linecap="round" stroke-linejoin="round" stroke-width="2"/>
        <path id="パス_93" data-name="パス 93" d="M20.659,16.894V45.346c0,5.77,3.28,7.63,5.489,7.63s5.488-1.86,5.488-7.63V16.894Z" transform="translate(-7.122 -5.824)" fill="none" stroke="#c7c0b7" stroke-width="1"/>
        <path id="パス_94" data-name="パス 94" d="M20.659,16.894V45.346c0,5.77,3.28,7.63,5.489,7.63s5.488-1.86,5.488-7.63V16.894Z" transform="translate(-7.122 -5.824)" fill="none" stroke="#c7c0b7" stroke-linecap="round" stroke-linejoin="round" stroke-width="2"/>
        <path id="パス_95" data-name="パス 95" d="M47.144,1c1.14,0,1.425,1.793,1.425,2.511V39.867c0,5.77,3.28,7.631,5.489,7.631s5.488-1.861,5.488-7.631V3.511c0-.718.285-2.511,1.425-2.511H47.144Z" transform="translate(-16.251 -0.345)" fill="none" stroke="#c7c0b7" stroke-linecap="round" stroke-linejoin="round" stroke-width="2"/>
        <rect id="長方形_43" data-name="長方形 43" width="55.521" height="3.697" transform="translate(0.655 15.458)" fill="none" stroke="#c7c0b7" stroke-linecap="round" stroke-linejoin="round" stroke-width="2"/>
        <rect id="長方形_44" data-name="長方形 44" width="55.521" height="6.789" transform="translate(0.655 49.318)" fill="none" stroke="#c7c0b7" stroke-width="1"/>
        <rect id="長方形_45" data-name="長方形 45" width="55.521" height="6.789" transform="translate(0.655 49.318)" fill="none" stroke="#c7c0b7" stroke-linecap="round" stroke-linejoin="round" stroke-width="2"/>
        <line id="線_8" data-name="線 8" y2="30.163" transform="translate(4.655 19.156)" fill="#fff" stroke="#c7c0b7" stroke-width="1"/>
        <line id="線_9" data-name="線 9" y2="30.163" transform="translate(4.655 19.156)" fill="none" stroke="#c7c0b7" stroke-linecap="round" stroke-linejoin="round" stroke-width="2"/>
        <line id="線_10" data-name="線 10" y2="30.163" transform="translate(52.83 19.156)" fill="#fff" stroke="#c7c0b7" stroke-width="1"/>
        <line id="線_11" data-name="線 11" y2="30.163" transform="translate(52.83 19.156)" fill="none" stroke="#c7c0b7" stroke-linecap="round" stroke-linejoin="round" stroke-width="2"/>
        <path id="パス_96" data-name="パス 96" d="M49.319,44.426v10.56c0,5.77,3.28,7.631,5.489,7.631S60.3,60.756,60.3,54.986V44.426Z" transform="translate(-17.001 -15.315)" fill="none" stroke="#c7c0b7" stroke-width="1"/>
        <path id="パス_97" data-name="パス 97" d="M49.319,44.426v10.56c0,5.77,3.28,7.631,5.489,7.631S60.3,60.756,60.3,54.986V44.426Z" transform="translate(-17.001 -15.315)" fill="none" stroke="#c7c0b7" stroke-linecap="round" stroke-linejoin="round" stroke-width="2"/>
      </g>
    </g>
  </g>
</svg>
