<svg xmlns="http://www.w3.org/2000/svg" viewBox="0 0 441.53 157.66"><g id="レイヤー_2" data-name="レイヤー 2"><g id="レイヤー_1-2" data-name="レイヤー 1"><path d="M223.14,95.51c0,3.33.1,6,.2,8.12h-6.93l-.36-3.59h-.17a9,9,0,0,1-7.95,4.17c-5.17,0-9-3.21-9-11V79.87h8v12c0,3.67,1.2,5.85,4,5.85A4.2,4.2,0,0,0,214.86,95a4,4,0,0,0,.28-1.6V79.87h8Z"/><path d="M245.76,99.07l7.93-8.28c1.48-1.7,2.61-2.93,4.11-4.49v-.11H246.64V79.87h21v4.77l-7.23,8c-1.42,1.64-3.08,3.14-4.58,4.58v.11H268v6.32H245.76Z"/><path d="M314.73,95.51c0,3.33.1,6,.21,8.12H308l-.37-3.59h-.17a9,9,0,0,1-8,4.17c-5.17,0-9-3.21-9-11V79.87h8v12c0,3.67,1.21,5.85,4,5.85A4.2,4.2,0,0,0,306.45,95a4,4,0,0,0,.28-1.6V79.87h8Z"/><path d="M339.73,69.29h8v34.34h-8Z"/><path d="M387.23,103.67l-.47-2.29h-.17a9.55,9.55,0,0,1-7.28,2.83c-5.21,0-8.24-3.44-8.24-7.14,0-6.07,5.88-9,15-8.95v-.28c0-1.18-.7-2.92-4.65-2.91a15.83,15.83,0,0,0-7.06,1.76l-1.53-5.77a22.1,22.1,0,0,1,9.95-2.1C391.19,78.82,394,84.41,394,90V98a31.15,31.15,0,0,0,.4,5.65Zm-1-11c-4.21,0-7.32.91-7.32,3.6,0,1.82,1.3,2.72,3.11,2.72a3.75,3.75,0,0,0,4.21-3.93Z"/><path d="M414.93,103.63c.11-1.62.2-4.64.2-7.55V69.29h8V82.42h.1c1.51-2.16,4.29-3.32,7.83-3.32,6.11,0,10.54,4.7,10.47,12.48,0,9.07-5.89,12.63-11.73,12.63a8.43,8.43,0,0,1-7.66-4.1H422l-.33,3.52Zm8.2-10.8a7.06,7.06,0,0,0,.12,1.35A4.88,4.88,0,0,0,427.94,98c3.35,0,5.47-1.59,5.47-6,0-3.85-1.77-6.21-5.46-6.21a4.53,4.53,0,0,0-4.68,3.53,2.3,2.3,0,0,0-.14.85Z"/><path d="M131,137.76a.69.69,0,0,1,.68.47c0,.18-.15.67-.09,1.2.11,1,.5,2,.6,3.06a10.15,10.15,0,0,0,.65,2.82c.23.59-.12,1.4-.18,2.11a1.33,1.33,0,0,0,.13.53c.18.55.36,1.11.58,1.65,0,.13.26.18.34.3a1.07,1.07,0,0,1,0,.64c-.51.89-.37,2.18-.84,3.25a4.68,4.68,0,0,1-.5.87c-.21.28-.47.51-.69.78a1.89,1.89,0,0,1-2.43.47c-.49-.26-1-.46-1.45-.76s-1.22-.68-1-1.56a.56.56,0,0,0-.2-.42c-1-.9-1.08-2.11-1.28-3.31s-.58-2.53-.82-3.8a18.61,18.61,0,0,1-.59-3.82c0-1.81-.54-3.53-.62-5.33a22.58,22.58,0,0,0-1.22-4.57c-.07-.24.08-.54-.07-.73-.21-.52-.41-1.05-.63-1.57a4.32,4.32,0,0,0-.36-.67c-.12-.18-.34-.33-.41-.53-.39-1.17-.75-2.35-1.12-3.52,0-.16,0-.35-.13-.46-2-2.62-3.22-5.69-5-8.43-.81-1.26-1.24-2.81-2.66-3.64a1.07,1.07,0,0,1-.34-.46,16.58,16.58,0,0,0-3.89-4.92,10.49,10.49,0,0,1-.76-1c-.46-.52-.93-1-1.4-1.52a11.54,11.54,0,0,0-1.41-1.47c-1.21-.93-2.46-1.82-3.74-2.65A36.5,36.5,0,0,0,96.89,99c-.91-.46-1.89-.79-2.82-1.23a10,10,0,0,1-1.39-.86c-1.18-.85-2.67-1.08-3.85-2-1.39-1-2.88-1.88-4.22-2.94-1.63-1.3-3.14-2.75-4.7-4.14a1.19,1.19,0,0,1-.38-.55c-.32-1.56-1.69-2-2.8-2.77a5.81,5.81,0,0,1-1-1,14.22,14.22,0,0,1-1.44-1.68A3.29,3.29,0,0,0,73,80.53c-.49-.24-.7-1.08-1-1.66a3.64,3.64,0,0,0-.44-.83,13.58,13.58,0,0,1-3.1-5.27c-.3-.87-.58-1.59,0-2.41a.49.49,0,0,0,0-.37,4.58,4.58,0,0,1-.1-3.8c0-.14-.07-.34-.08-.52,0-.36,0-.73,0-1.09s0-.46,0-.69-.12-.46,0-.63A50.23,50.23,0,0,0,70,57.14c.61-2.12,1-4.42,2.17-6.23.86-1.36.49-2.81,1.18-4.07a3.74,3.74,0,0,0,.3-1.46c0-.49-.27-.86,0-1.1s.48-.18.58-.33,0-.37,0-.46c0-.48-.06-1,0-1.46s.16-.82.16-1.23c0-1.78.12-3.57,0-5.33a31.35,31.35,0,0,0-.82-4.79,19.54,19.54,0,0,0-1.12-3.31c-.23-.55-1-.94-1.07-1.47C71,24.14,69.56,23.28,68.64,22s-2-2.56-3.07-3.82a2.39,2.39,0,0,0-.56-.54c-1.3-.78-2.59-1.6-4-2.25-.53-.25-1.17,0-1.8-.47A14.49,14.49,0,0,0,56,13.43a24,24,0,0,0-3.46-1.2c-1.24-.29-2.54-.33-3.81-.53-.87-.13-1.73-.35-2.6-.5-.5-.09-1-.07-1.52-.17-.22,0-.41-.27-.62-.41-.62-.09-1.32-.2-2-.29a16.13,16.13,0,0,0-2.75-.28,26.88,26.88,0,0,1-4.58.18,26.45,26.45,0,0,0-4.36,0c-.9,0-1.79.36-2.69.44a8.65,8.65,0,0,1-1.49-.22,16,16,0,0,0-1.83,0c-.15,0-.31.17-.44.14-1.12-.22-2.22-.58-3.35-.69s-2.08-.11-3.11-.21A8.4,8.4,0,0,1,14.1,8.55c-2-1.16-5.62-3.12-7.6-4.39-.63-.4-1.65-.83-2.29-1.23C3.32,2.38,3,1.42,3.64.77c.94-1,2.3-.87,3.58-.52S11.84,2,13.15,2.59A6.77,6.77,0,0,1,14.9,3.71a4.6,4.6,0,0,0,2.6.82c1.41.2,2.81.49,4.21.71a3.25,3.25,0,0,0,.87-.08,1.5,1.5,0,0,1,.62-.06,8,8,0,0,0,4.9.08c.61-.16,1.34.22,2,.16,1.73-.14,3.44-.43,5.17-.58a18.74,18.74,0,0,1,2.48.08c.23,0,.49.14.67.06,2-.86,3.9.36,5.86,0a3.67,3.67,0,0,1,1.49.3c1.59.44,3.39.18,4.82.79,1.74.74,3.66.09,5.34,1.23,1,.68,2.56.52,3.72,1.06,1,.45,2.08.32,3.06,1.13a16.41,16.41,0,0,0,4.8,2.6,3.08,3.08,0,0,1,2.11,1.7.56.56,0,0,0,.48.24c.55-.13.57.25.8.58a15.43,15.43,0,0,0,1.5,1.53c.88.89,1.76,1.79,2.61,2.71.16.17.19.46.31.68.23.4.48.81.75,1.19.55.79,1.12,1.56,1.68,2.35.15.21.2.51.38.67,1,.93,1.1,2.3,1.65,3.44a5.33,5.33,0,0,1,.46,2.69c0,.76.61,1.52.86,2.3a4.84,4.84,0,0,1,.07,1.21c0,.29,0,.57,0,.86,0,.48,0,1,0,1.45.05.83.12,1.66.16,2.49a4.93,4.93,0,0,1,0,1.91c-.39,1.09.9,2.24-.22,3.24-.09.07-.07.32,0,.47.51,1.73-.26,3.26-.78,4.82a2.14,2.14,0,0,0-.18,1.12,2.85,2.85,0,0,1-.74,2.88c-.11.13-.25.45-.2.49.75.71-.14,1.56-.24,1.81s-.5.34-.7.67.62,1.32-.41,2c-.2.14-.17.59-.28.88-.15.46-.33.9-.58,1.55.31.36-.1.76-.34,1.35a9.59,9.59,0,0,0-.27,2.81c0,.26,0,.69-.09.73-.93.36-.66,1-.52,1.69a1.88,1.88,0,0,1,.06.74c-.15.91-.66,1.9-.44,2.7s1,1.49.46,2.47c0,0,.07.12.12.13,1.17.19,1.13,1.41,1.76,2s1.32,1.07,1.53,1.75c.47,1.47,1.87,1.71,2.81,2.54a10,10,0,0,1,.83.76c.65.68,1.27,1.39,1.91,2.07.15.16.51.28.5.4-.07,1.39,1.38,1.39,2,2.18a8.36,8.36,0,0,0,2.18,2.1,27.84,27.84,0,0,0,3.59,1.65c.12.06.28.07.35.15,1.07,1.39,3,1.26,4.19,2.36,1.35,1.29,3.23,1.5,4.68,2.6A39.43,39.43,0,0,0,106,95.11a8.54,8.54,0,0,1,1.6,1.68c.15.16.24.4.42.5.71.41,1.45.78,2.16,1.18a1.3,1.3,0,0,1,.31.35c0,.05,0,.15,0,.19.48.52,1.21,1,1.39,1.57.26.86.63,1.29,1.5,1.32.09,0,.25,0,.26.1.24.87,1.11,1.16,1.6,1.76a16.89,16.89,0,0,1,2.64,4,7,7,0,0,0,1.55,1.93,15.58,15.58,0,0,1,1.22,2c.48.75,1.16,1.32,1.2,2.4,0,.63.85,1.22,1.29,1.84a8.57,8.57,0,0,1,.63,1c.18.34.27.73.47,1,.87,1.39,1.78,2.75,2.67,4.14a1,1,0,0,1,.13.45c.09.69.14,1.38.24,2.07,0,.1.28.15.34.26.5.89,1,1.78,1.43,2.69.06.13-.16.39,0,.51a5.49,5.49,0,0,1,.5,1.11c.25,1.23.43,2.47.63,3.71.11.64,1.08,1,.65,1.84a3.68,3.68,0,0,0-.13,1.21C131.72,136.26,131.75,136.87,131,137.76Z"/><path d="M22.89,117.88c-.06.08-.46.27-.51.42a1.36,1.36,0,0,0,.09.71,2.1,2.1,0,0,1,.08,2,2.9,2.9,0,0,0,0,1.63c.1.63.32,1.23.48,1.85a2.07,2.07,0,0,1,0,.79c-.45.88-.17,1.38-.19,2.29s-.05,2-.08,3a20.6,20.6,0,0,0-.05,2.83,27.47,27.47,0,0,1-.28,5.21,17.16,17.16,0,0,0,.27,2.84c0,.13.07.28,0,.38-.88,2.34-.26,4.77-.44,7.15a25.3,25.3,0,0,0,.11,2.84,4,4,0,0,1-.23,1.26c-.45.95-1,1.85-1.53,2.76a1.87,1.87,0,0,1-.36.32c-1.2,1.06-3.56,2.15-4.69,1a4.14,4.14,0,0,1-1.43-3.07c0-1-.21-2-.25-3,0-.47.23-1,.26-1.43,0-.86,0-1.74,0-2.61q.18-4.49.4-9a13.6,13.6,0,0,0,.21-3.28,4.86,4.86,0,0,1,.29-2.5.87.87,0,0,0,0-.57c-.65-1,0-2,0-2.94a5.13,5.13,0,0,0-.25-1.2c0-.12-.18-.24-.17-.34.09-.85.2-1.69.31-2.53,0-.13.15-.3.11-.36-.59-.75,0-1.59-.17-2.37a2.4,2.4,0,0,1,.08-.74c0-.25.19-.58.09-.75-.58-1,0-1.92,0-2.87a18,18,0,0,0-.33-2,2.19,2.19,0,0,1,.06-1.2,2.22,2.22,0,0,0,0-2.19,1.16,1.16,0,0,1-.2-.73c.3-1-.23-2.11.37-3.14.23-.39,0-1.07-.07-1.6a14,14,0,0,1-.31-1.67c0-2.11,0-4.22-.05-6.32,0-.6-.33-1.18-.35-1.78-.06-1.54-.05-3.08-.05-4.62,0-8,0-16,0-24,0-1.23-.31-2.46-.37-3.69,0-.83.15-1.66.16-2.49a14.43,14.43,0,0,0-.19-1.61c0-.31-.13-.7,0-.92A3.27,3.27,0,0,0,14,57.23c-.13-1,0-1.95,0-2.92,0-.52-.28-1-.29-1.55-.05-1.45,0-2.91,0-4.36-.08-1.62-.34-3.22-.43-4.84-.1-1.79,0-3.6-.15-5.39-.18-2.48-.49-5-.75-7.44-.2-1.83-.35-3.66-.6-5.47-.18-1.26-.49-2.5-.75-3.74a23.91,23.91,0,0,0-3.73-8.08c-.25-.38-.72-.61-1-.95C4.74,11,3.64,11.15,2,10A8.81,8.81,0,0,1,.12,8.37a1.36,1.36,0,0,1,.1-1.29,2.73,2.73,0,0,1,3.24-.2c1,.6,2.11,1,3.15,1.54.42.21,1.5.65,1.93.83a12.58,12.58,0,0,1,5.05,3.09,14.61,14.61,0,0,1,1.9,3.12c.29.53.66,1,.9,1.55.13.29,0,.68.08,1a6,6,0,0,0,.33,1.12c.1.25.35.46.37.7.15,1.3.95,2.54.38,3.92-.06.15.14.41.22.62.22.64.95,1.22.22,2,0,0,0,.24.08.36a6.32,6.32,0,0,1,.45,2.55A14.08,14.08,0,0,0,19.21,33c0,.06.08.13.06.18-.57,1.71.2,3.38.21,5.08a47.64,47.64,0,0,0,.75,6.14s0,.07,0,.09c-1,1.17.74,2.51-.22,3.7-.06.07.06.29.08.44.09.59.18,1.18.26,1.78s.18,1.18.28,1.78c0,.06.06.12.06.18-.07,1.26-.13,2.52-.21,3.78a4.82,4.82,0,0,0-.1.75c.1,1.47.21,2.93.37,4.39A15.17,15.17,0,0,0,21.16,63c0,.07.07.12.07.18-.08.86-.16,1.72-.26,2.58,0,.22-.23.48-.16.64.81,1.83,0,3.84.7,5.71.22.63-.14,1.46-.13,2.19,0,1,.19,2,.22,3,0,.83-.1,1.66-.14,2.49s-.09,1.73-.06,2.59.21,1.9.2,2.85c0,1.44-.29,2.88-.24,4.31s.36,3,.56,4.57c0,.15.1.34,0,.46-.68,1.48-.14,2.86.31,4.26a2,2,0,0,1,0,.85c-.12.86-.29,1.71-.42,2.56a.59.59,0,0,0,.06.37c.71,1.14.19,2.39.33,3.58.08.63.2,1.25.3,1.88,0,0,0,.07,0,.09-.75,1.45.71,3-.21,4.43a.6.6,0,0,0-.09.37c.16,1.44.31,2.87.5,4.3A2.1,2.1,0,0,1,22.89,117.88Z"/></g></g></svg>