<?xml version="1.0" encoding="utf-8"?>
<!-- Generator: Adobe Illustrator 26.5.0, SVG Export Plug-In . SVG Version: 6.00 Build 0)  -->
<svg version="1.1" id="レイヤー_1" xmlns="http://www.w3.org/2000/svg" xmlns:xlink="http://www.w3.org/1999/xlink" x="0px"
	 y="0px" viewBox="0 0 441.5 157.7" style="enable-background:new 0 0 441.5 157.7;" xml:space="preserve">
<style type="text/css">
	.st0{fill:#E2E3E3;}
</style>
<g id="レイヤー_2_00000064325512622067584930000009787500815211415231_">
	<g id="レイヤー_1-2">
		<path class="st0" d="M223.1,95.5c0,3.3,0.1,6,0.2,8.1h-6.9l-0.4-3.6h-0.2c-1.7,2.7-4.7,4.3-7.9,4.2c-5.2,0-9-3.2-9-11V79.9h8v12
			c0,3.7,1.2,5.8,4,5.8c1.7,0,3.3-1.1,3.9-2.7c0.2-0.5,0.3-1.1,0.3-1.6V79.9h8V95.5z"/>
		<path class="st0" d="M245.8,99.1l7.9-8.3c1.5-1.7,2.6-2.9,4.1-4.5v-0.1h-11.2v-6.3h21v4.8l-7.2,8c-1.4,1.6-3.1,3.1-4.6,4.6v0.1
			H268v6.3h-22.2V99.1z"/>
		<path class="st0" d="M314.7,95.5c0,3.3,0.1,6,0.2,8.1H308l-0.4-3.6h-0.2c-1.7,2.7-4.8,4.3-8,4.2c-5.2,0-9-3.2-9-11V79.9h8v12
			c0,3.7,1.2,5.8,4,5.8c1.8,0,3.4-1.1,4-2.7c0.2-0.5,0.3-1.1,0.3-1.6V79.9h8V95.5z"/>
		<path class="st0" d="M339.7,69.3h8v34.3h-8V69.3z"/>
		<path class="st0" d="M387.2,103.7l-0.5-2.3h-0.2c-1.9,1.9-4.6,3-7.3,2.8c-5.2,0-8.2-3.4-8.2-7.1c0-6.1,5.9-9,15-8.9v-0.3
			c0-1.2-0.7-2.9-4.6-2.9c-2.5,0-4.9,0.6-7.1,1.8l-1.5-5.8c3.1-1.5,6.5-2.2,10-2.1c8.4,0,11.2,5.6,11.2,11.2v8
			c0,1.9,0.1,3.8,0.4,5.7L387.2,103.7z M386.2,92.7c-4.2,0-7.3,0.9-7.3,3.6c0,1.8,1.3,2.7,3.1,2.7c2.1,0.3,3.9-1.2,4.2-3.3
			c0-0.2,0-0.4,0-0.7L386.2,92.7z"/>
		<path class="st0" d="M414.9,103.6c0.1-1.6,0.2-4.6,0.2-7.6V69.3h8v13.1h0.1c1.5-2.2,4.3-3.3,7.8-3.3c6.1,0,10.5,4.7,10.5,12.5
			c0,9.1-5.9,12.6-11.7,12.6c-3.1,0.2-6.1-1.4-7.7-4.1H422l-0.3,3.5H414.9z M423.1,92.8c0,0.5,0,0.9,0.1,1.3
			c0.5,2.2,2.4,3.8,4.7,3.8c3.4,0,5.5-1.6,5.5-6c0-3.8-1.8-6.2-5.5-6.2c-2.2-0.1-4.2,1.4-4.7,3.5c-0.1,0.3-0.1,0.6-0.1,0.8V92.8z"/>
		<path class="st0" d="M131,137.8c0.3,0,0.6,0.2,0.7,0.5c0,0.2-0.1,0.7-0.1,1.2c0.1,1,0.5,2,0.6,3.1c0.1,1,0.3,1.9,0.6,2.8
			c0.2,0.6-0.1,1.4-0.2,2.1c0,0.2,0.1,0.4,0.1,0.5c0.2,0.6,0.4,1.1,0.6,1.6c0,0.1,0.3,0.2,0.3,0.3c0.1,0.2,0.1,0.4,0,0.6
			c-0.5,0.9-0.4,2.2-0.8,3.2c-0.1,0.3-0.3,0.6-0.5,0.9c-0.2,0.3-0.5,0.5-0.7,0.8c-0.6,0.7-1.6,0.9-2.4,0.5c-0.5-0.3-1-0.5-1.4-0.8
			s-1.2-0.7-1-1.6c0-0.2-0.1-0.3-0.2-0.4c-1-0.9-1.1-2.1-1.3-3.3s-0.6-2.5-0.8-3.8c-0.3-1.2-0.5-2.5-0.6-3.8c0-1.8-0.5-3.5-0.6-5.3
			c-0.2-1.6-0.7-3.1-1.2-4.6c-0.1-0.2,0.1-0.5-0.1-0.7c-0.2-0.5-0.4-1.1-0.6-1.6c-0.1-0.2-0.2-0.5-0.4-0.7c-0.1-0.2-0.3-0.3-0.4-0.5
			c-0.4-1.2-0.8-2.3-1.1-3.5c0-0.2,0-0.3-0.1-0.5c-2-2.6-3.2-5.7-5-8.4c-0.8-1.3-1.2-2.8-2.7-3.6c-0.2-0.1-0.3-0.3-0.3-0.5
			c-1-1.9-2.3-3.5-3.9-4.9c-0.3-0.3-0.5-0.7-0.8-1c-0.5-0.5-0.9-1-1.4-1.5c-0.4-0.5-0.9-1-1.4-1.5c-1.2-0.9-2.5-1.8-3.7-2.7
			c-1.1-0.6-2.1-1.2-3.3-1.8c-0.9-0.5-1.9-0.8-2.8-1.2c-0.5-0.2-1-0.5-1.4-0.9c-1.2-0.8-2.7-1.1-3.8-2c-1.4-1-2.9-1.9-4.2-2.9
			c-1.6-1.3-3.1-2.8-4.7-4.1c-0.2-0.1-0.3-0.3-0.4-0.6c-0.3-1.6-1.7-2-2.8-2.8c-0.4-0.3-0.7-0.6-1-1c-0.5-0.5-1-1.1-1.4-1.7
			c-0.3-0.5-0.7-1-1.3-1.3c-0.5-0.2-0.7-1.1-1-1.7c-0.1-0.3-0.3-0.6-0.4-0.8c-1.4-1.5-2.5-3.3-3.1-5.3c-0.3-0.9-0.6-1.6,0-2.4
			c0-0.1,0-0.3,0-0.4c-0.6-1.2-0.6-2.6-0.1-3.8c0-0.1-0.1-0.3-0.1-0.5c0-0.4,0-0.7,0-1.1s0-0.5,0-0.7s-0.1-0.5,0-0.6
			c0.7-2,1.3-4,1.7-6.1c0.6-2.1,1-4.4,2.2-6.2c0.9-1.4,0.5-2.8,1.2-4.1c0.2-0.5,0.3-1,0.3-1.5c0-0.5-0.3-0.9,0-1.1s0.5-0.2,0.6-0.3
			s0-0.4,0-0.5c0-0.5-0.1-1,0-1.5s0.2-0.8,0.2-1.2c0-1.8,0.1-3.6,0-5.3c-0.1-1.6-0.4-3.2-0.8-4.8c-0.3-1.1-0.6-2.2-1.1-3.3
			c-0.2-0.5-1-0.9-1.1-1.5c-0.4-1.8-1.8-2.6-2.7-3.9s-2-2.6-3.1-3.8c-0.2-0.2-0.3-0.4-0.6-0.5c-1.3-0.8-2.6-1.6-4-2.2
			c-0.5-0.2-1.2,0-1.8-0.5c-1-0.6-2.1-1.1-3.2-1.5c-1.1-0.5-2.3-0.9-3.5-1.2c-1.2-0.3-2.5-0.3-3.8-0.5c-0.9-0.1-1.7-0.4-2.6-0.5
			c-0.5-0.1-1-0.1-1.5-0.2c-0.2,0-0.4-0.3-0.6-0.4c-0.6-0.1-1.3-0.2-2-0.3c-0.9-0.2-1.8-0.3-2.8-0.3c-1.5,0.2-3.1,0.3-4.6,0.2
			c-1.5-0.1-2.9-0.1-4.4,0c-0.9,0-1.8,0.4-2.7,0.4c-0.5,0-1-0.1-1.5-0.2c-0.6,0-1.2,0-1.8,0c-0.1,0-0.3,0.2-0.4,0.1
			c-1.1-0.2-2.2-0.6-3.4-0.7s-2.1-0.1-3.1-0.2c-1.2-0.1-2.3-0.5-3.3-1.1c-2-1.2-5.6-3.1-7.6-4.4C5.9,3.8,4.9,3.3,4.2,2.9
			C3.3,2.4,3,1.4,3.6,0.8c0.9-1,2.3-0.9,3.6-0.5s4.6,1.8,5.9,2.3c0.6,0.3,1.2,0.7,1.8,1.1c0.8,0.5,1.7,0.8,2.6,0.8
			c1.4,0.2,2.8,0.5,4.2,0.7c0.3,0,0.6,0,0.9-0.1c0.2-0.1,0.4-0.1,0.6-0.1c1.6,0.5,3.3,0.6,4.9,0.1c0.6-0.2,1.3,0.2,2,0.2
			c1.7-0.1,3.4-0.4,5.2-0.6c0.8,0,1.7,0,2.5,0.1c0.2,0,0.5,0.1,0.7,0.1c2-0.9,3.9,0.4,5.9,0c0.5,0,1,0.1,1.5,0.3
			c1.6,0.4,3.4,0.2,4.8,0.8c1.7,0.7,3.7,0.1,5.3,1.2c1,0.7,2.6,0.5,3.7,1.1c1,0.4,2.1,0.3,3.1,1.1c1.4,1.1,3.1,2,4.8,2.6
			c0.9,0.2,1.7,0.8,2.1,1.7c0.1,0.2,0.3,0.2,0.5,0.2c0.6-0.1,0.6,0.2,0.8,0.6c0.5,0.5,1,1.1,1.5,1.5c0.9,0.9,1.8,1.8,2.6,2.7
			c0.2,0.2,0.2,0.5,0.3,0.7c0.2,0.4,0.5,0.8,0.8,1.2c0.6,0.8,1.1,1.6,1.7,2.4c0.2,0.2,0.2,0.5,0.4,0.7c1,0.9,1.1,2.3,1.7,3.4
			c0.4,0.8,0.5,1.8,0.5,2.7c0,0.8,0.6,1.5,0.9,2.3c0.1,0.4,0.1,0.8,0.1,1.2c0,0.3,0,0.6,0,0.9c0,0.5,0,1,0,1.5
			c0.1,0.8,0.1,1.7,0.2,2.5c0.1,0.6,0.1,1.3,0,1.9c-0.4,1.1,0.9,2.2-0.2,3.2c-0.1,0.1-0.1,0.3,0,0.5c0.5,1.7-0.3,3.3-0.8,4.8
			c-0.2,0.4-0.2,0.7-0.2,1.1c0.3,1,0,2.1-0.7,2.9c-0.1,0.1-0.2,0.5-0.2,0.5c0.8,0.7-0.1,1.6-0.2,1.8s-0.5,0.3-0.7,0.7s0.6,1.3-0.4,2
			c-0.2,0.1-0.2,0.6-0.3,0.9c-0.2,0.5-0.3,0.9-0.6,1.5c0.3,0.4-0.1,0.8-0.3,1.3c-0.2,0.9-0.3,1.9-0.3,2.8c0,0.3,0,0.7-0.1,0.7
			c-0.9,0.4-0.7,1-0.5,1.7c0.1,0.2,0.1,0.5,0.1,0.7c-0.2,0.9-0.7,1.9-0.4,2.7s1,1.5,0.5,2.5c0,0,0.1,0.1,0.1,0.1
			c1.2,0.2,1.1,1.4,1.8,2s1.3,1.1,1.5,1.8c0.5,1.5,1.9,1.7,2.8,2.5c0.3,0.2,0.6,0.5,0.8,0.8c0.7,0.7,1.3,1.4,1.9,2.1
			c0.2,0.2,0.5,0.3,0.5,0.4c-0.1,1.4,1.4,1.4,2,2.2c0.6,0.8,1.3,1.5,2.2,2.1c1.2,0.6,2.4,1.2,3.6,1.7c0.1,0.1,0.3,0.1,0.3,0.2
			c1.1,1.4,3,1.3,4.2,2.4c1.3,1.3,3.2,1.5,4.7,2.6c1.2,0.7,2.4,1.4,3.7,2c0.6,0.5,1.1,1,1.6,1.7c0.2,0.2,0.2,0.4,0.4,0.5
			c0.7,0.4,1.4,0.8,2.2,1.2c0.1,0.1,0.2,0.2,0.3,0.3c0,0.1,0,0.2,0,0.2c0.5,0.5,1.2,1,1.4,1.6c0.3,0.9,0.6,1.3,1.5,1.3
			c0.1,0,0.2,0,0.3,0.1c0.2,0.9,1.1,1.2,1.6,1.8c1.1,1.2,2,2.5,2.6,4c0.4,0.7,0.9,1.4,1.6,1.9c0.5,0.6,0.9,1.3,1.2,2
			c0.5,0.8,1.2,1.3,1.2,2.4c0,0.6,0.8,1.2,1.3,1.8c0.2,0.3,0.4,0.7,0.6,1c0.2,0.3,0.3,0.7,0.5,1c0.9,1.4,1.8,2.8,2.7,4.1
			c0.1,0.1,0.1,0.3,0.1,0.4c0.1,0.7,0.1,1.4,0.2,2.1c0,0.1,0.3,0.2,0.3,0.3c0.5,0.9,1,1.8,1.4,2.7c0.1,0.1-0.2,0.4,0,0.5
			c0.2,0.4,0.4,0.7,0.5,1.1c0.2,1.2,0.4,2.5,0.6,3.7c0.1,0.6,1.1,1,0.6,1.8c-0.1,0.4-0.2,0.8-0.1,1.2
			C131.7,136.3,131.8,136.9,131,137.8z"/>
		<path class="st0" d="M22.9,117.9c-0.1,0.1-0.5,0.3-0.5,0.4c0,0.2,0,0.5,0.1,0.7c0.4,0.6,0.4,1.4,0.1,2c-0.2,0.5-0.2,1.1,0,1.6
			c0.1,0.6,0.3,1.2,0.5,1.8c0.1,0.3,0.1,0.5,0,0.8c-0.5,0.9-0.2,1.4-0.2,2.3s0,2-0.1,3c-0.1,0.9-0.1,1.9,0,2.8
			c0.1,1.7,0,3.5-0.3,5.2c0,1,0.1,1.9,0.3,2.8c0,0.1,0.1,0.3,0,0.4c-0.9,2.3-0.3,4.8-0.4,7.1c0,0.9,0,1.9,0.1,2.8
			c0,0.4-0.1,0.9-0.2,1.3c-0.5,0.9-1,1.9-1.5,2.8c-0.1,0.1-0.2,0.2-0.4,0.3c-1.2,1.1-3.6,2.1-4.7,1c-0.9-0.8-1.4-1.9-1.4-3.1
			c0-1-0.2-2-0.2-3c0-0.5,0.2-1,0.3-1.4c0-0.9,0-1.7,0-2.6c0.1-3,0.3-6,0.4-9c0.2-1.1,0.3-2.2,0.2-3.3c-0.1-0.8,0-1.7,0.3-2.5
			c0.1-0.2,0.1-0.4,0-0.6c-0.6-1,0-2,0-2.9c0-0.4-0.1-0.8-0.2-1.2c0-0.1-0.2-0.2-0.2-0.3c0.1-0.8,0.2-1.7,0.3-2.5
			c0-0.1,0.1-0.3,0.1-0.4c-0.6-0.8,0-1.6-0.2-2.4c0-0.2,0-0.5,0.1-0.7c0-0.2,0.2-0.6,0.1-0.8c-0.6-1,0-1.9,0-2.9
			c-0.1-0.7-0.2-1.3-0.3-2c-0.1-0.4-0.1-0.8,0.1-1.2c0.4-0.7,0.4-1.5,0-2.2c-0.1-0.2-0.2-0.5-0.2-0.7c0.3-1-0.2-2.1,0.4-3.1
			c0.2-0.4,0-1.1-0.1-1.6c-0.1-0.5-0.2-1.1-0.3-1.7c0-2.1,0-4.2-0.1-6.3c0-0.6-0.3-1.2-0.4-1.8c-0.1-1.5-0.1-3.1-0.1-4.6
			c0-8,0-16,0-24c0-1.2-0.3-2.5-0.4-3.7c0-0.8,0.1-1.7,0.2-2.5c0-0.5-0.1-1.1-0.2-1.6c0-0.3-0.1-0.7,0-0.9c0.4-0.7,0.5-1.6,0.3-2.4
			c-0.1-1,0-2,0-2.9c0-0.5-0.3-1-0.3-1.5c-0.1-1.5,0-2.9,0-4.4c-0.1-1.6-0.3-3.2-0.4-4.8c-0.1-1.8,0-3.6-0.1-5.4
			c-0.2-2.5-0.5-5-0.8-7.4c-0.2-1.8-0.4-3.7-0.6-5.5c-0.2-1.3-0.5-2.5-0.8-3.7c-0.7-2.9-2-5.6-3.7-8.1c-0.2-0.4-0.7-0.6-1-0.9
			C4.7,11,3.6,11.1,2,10C1.3,9.5,0.7,9,0.1,8.4C-0.1,8,0,7.5,0.2,7.1c0.9-0.8,2.2-0.9,3.2-0.2c1,0.6,2.1,1,3.2,1.5
			C7,8.6,8.1,9.1,8.5,9.2c1.9,0.6,3.6,1.7,5.1,3.1c0.8,1,1.4,2,1.9,3.1c0.3,0.5,0.7,1,0.9,1.6c0.1,0.3,0,0.7,0.1,1
			c0.1,0.4,0.2,0.8,0.3,1.1c0.1,0.2,0.4,0.5,0.4,0.7c0.1,1.3,1,2.5,0.4,3.9c-0.1,0.1,0.1,0.4,0.2,0.6c0.2,0.6,1,1.2,0.2,2
			c0,0,0,0.2,0.1,0.4c0.3,0.8,0.5,1.7,0.5,2.5c0.1,1.3,0.3,2.5,0.7,3.7c0,0.1,0.1,0.1,0.1,0.2c-0.6,1.7,0.2,3.4,0.2,5.1
			c0.1,2.1,0.4,4.1,0.8,6.1c0,0,0,0.1,0,0.1c-1,1.2,0.7,2.5-0.2,3.7c-0.1,0.1,0.1,0.3,0.1,0.4c0.1,0.6,0.2,1.2,0.3,1.8
			s0.2,1.2,0.3,1.8c0,0.1,0.1,0.1,0.1,0.2c-0.1,1.3-0.1,2.5-0.2,3.8c-0.1,0.2-0.1,0.5-0.1,0.8c0.1,1.5,0.2,2.9,0.4,4.4
			c0.1,0.6,0.2,1.1,0.4,1.7c0,0.1,0.1,0.1,0.1,0.2c-0.1,0.9-0.2,1.7-0.3,2.6c0,0.2-0.2,0.5-0.2,0.6c0.8,1.8,0,3.8,0.7,5.7
			c0.2,0.6-0.1,1.5-0.1,2.2c0,1,0.2,2,0.2,3c0,0.8-0.1,1.7-0.1,2.5s-0.1,1.7-0.1,2.6s0.2,1.9,0.2,2.8c0,1.4-0.3,2.9-0.2,4.3
			s0.4,3,0.6,4.6c0,0.2,0.1,0.3,0,0.5c-0.7,1.5-0.1,2.9,0.3,4.3c0.1,0.3,0.1,0.6,0,0.8c-0.1,0.9-0.3,1.7-0.4,2.6
			c0,0.1,0,0.3,0.1,0.4c0.7,1.1,0.2,2.4,0.3,3.6c0.1,0.6,0.2,1.2,0.3,1.9c0,0,0,0.1,0,0.1c-0.8,1.4,0.7,3-0.2,4.4
			c-0.1,0.1-0.1,0.2-0.1,0.4c0.2,1.4,0.3,2.9,0.5,4.3C22.8,117.5,22.9,117.7,22.9,117.9z"/>
	</g>
</g>
</svg>
